<svg width="566" height="399" xmlns="http://www.w3.org/2000/svg" xmlns:xlink="http://www.w3.org/1999/xlink" xml:space="preserve" overflow="hidden"><g><path d="M0 0 566 0 566 399 0 399Z" fill="#FFFFFF"/><path d="M79.5 337.5 540.5 337.5M79.5 330.5 540.5 330.5M79.5 323.5 540.5 323.5M79.5 315.5 540.5 315.5M79.5 301.5 540.5 301.5M79.5 293.5 540.5 293.5M79.5 286.5 540.5 286.5M79.5 279.5 540.5 279.5M79.5 264.5 540.5 264.5M79.5 257.5 540.5 257.5M79.5 249.5 540.5 249.5M79.5 242.5 540.5 242.5M79.5 227.5 540.5 227.5M79.5 220.5 540.5 220.5M79.5 213.5 540.5 213.5M79.5 205.5 540.5 205.5M79.5 191.5 540.5 191.5M79.5 183.5 540.5 183.5M79.5 176.5 540.5 176.5M79.5 169.5 540.5 169.5M79.5 154.5 540.5 154.5M79.5 147.5 540.5 147.5M79.5 139.5 540.5 139.5M79.5 132.5 540.5 132.5M79.5 117.5 540.5 117.5M79.5 110.5 540.5 110.5M79.5 103.5 540.5 103.5M79.5 95.5 540.5 95.5M79.5 81.5 540.5 81.5M79.5 73.5001 540.5 73.5001M79.5 66.5001 540.5 66.5001M79.5 59.5001 540.5 59.5001M79.5 44.5001 540.5 44.5001M79.5 37.5001 540.5 37.5001M79.5 29.5001 540.5 29.5001M79.5 22.5001 540.5 22.5001" stroke="#F2F2F2" stroke-linejoin="round" stroke-miterlimit="10" fill="none"/><path d="M79.5 308.5 540.5 308.5M79.5 271.5 540.5 271.5M79.5 235.5 540.5 235.5M79.5 198.5 540.5 198.5M79.5 161.5 540.5 161.5M79.5 125.5 540.5 125.5M79.5 88.5 540.5 88.5M79.5 51.5001 540.5 51.5001M79.5 15.5001 540.5 15.5001" stroke="#D9D9D9" stroke-linejoin="round" stroke-miterlimit="10" fill="none"/><path d="M102.5 15.5001 102.5 345.5M148.5 15.5001 148.5 345.5M194.5 15.5001 194.5 345.5M240.5 15.5001 240.5 345.5M286.5 15.5001 286.5 345.5M333.5 15.5001 333.5 345.5M379.5 15.5001 379.5 345.5M425.5 15.5001 425.5 345.5M471.5 15.5001 471.5 345.5M517.5 15.5001 517.5 345.5" stroke="#F2F2F2" stroke-linejoin="round" stroke-miterlimit="10" fill="none"/><path d="M79.5 15.5001 79.5 345.5M125.5 15.5001 125.5 345.5M171.5 15.5001 171.5 345.5M217.5 15.5001 217.5 345.5M263.5 15.5001 263.5 345.5M310.5 15.5001 310.5 345.5M356.5 15.5001 356.5 345.5M402.5 15.5001 402.5 345.5M448.5 15.5001 448.5 345.5M494.5 15.5001 494.5 345.5M540.5 15.5001 540.5 345.5" stroke="#D9D9D9" stroke-linejoin="round" stroke-miterlimit="10" fill="none"/><path d="M88 151 98 151 98 345 88 345ZM134 157 144 157 144 345 134 345ZM180 91 190 91 190 345 180 345ZM226 104 236 104 236 345 226 345ZM272 115 282 115 282 345 272 345ZM318 161 328 161 328 345 318 345ZM364 171 374 171 374 345 364 345ZM410 168 420 168 420 345 410 345ZM456 168 466 168 466 345 456 345ZM502 162 512 162 512 345 502 345Z" fill="#FD9800"/><path d="M98 137 108 137 108 345 98 345ZM144 184 154 184 154 345 144 345ZM190 117 200 117 200 345 190 345ZM236 128 246 128 246 345 236 345ZM282 160 292 160 292 345 282 345ZM328 175 338 175 338 345 328 345ZM374 188 384 188 384 345 374 345ZM420 194 430 194 430 345 420 345ZM466 192 476 192 476 345 466 345ZM512 180 522 180 522 345 512 345Z" fill="#013565"/><path d="M108 48 118 48 118 345 108 345ZM154 110 164 110 164 345 154 345ZM200 57 210 57 210 345 200 345ZM246 72 256 72 256 345 246 345ZM292 105 302 105 302 345 292 345ZM338 117 348 117 348 345 338 345ZM384 123 394 123 394 345 384 345ZM430 140 440 140 440 345 430 345ZM476 119 486 119 486 345 476 345ZM522 102 532 102 532 345 522 345Z" fill="#FF0000"/><path d="M0 0 0.000104987 330" stroke="#BFBFBF" stroke-linejoin="round" stroke-miterlimit="10" fill="none" fill-rule="evenodd" transform="matrix(1 0 0 -1 79.5 345.5)"/><path d="M75.5 345.5 79.5 345.5M75.5 308.5 79.5 308.5M75.5 271.5 79.5 271.5M75.5 235.5 79.5 235.5M75.5 198.5 79.5 198.5M75.5 161.5 79.5 161.5M75.5 125.5 79.5 125.5M75.5 88.5 79.5 88.5M75.5 51.5001 79.5 51.5001M75.5 15.5001 79.5 15.5001" stroke="#BFBFBF" stroke-linejoin="round" stroke-miterlimit="10" fill="none"/><path d="M79.5 345.5 540.5 345.5" stroke="#BFBFBF" stroke-linejoin="round" stroke-miterlimit="10" fill="none" fill-rule="evenodd"/><path d="M79.5 345.5 79.5 349.5M125.5 345.5 125.5 349.5M171.5 345.5 171.5 349.5M217.5 345.5 217.5 349.5M263.5 345.5 263.5 349.5M310.5 345.5 310.5 349.5M356.5 345.5 356.5 349.5M402.5 345.5 402.5 349.5M448.5 345.5 448.5 349.5M494.5 345.5 494.5 349.5M540.5 345.5 540.5 349.5" stroke="#BFBFBF" stroke-linejoin="round" stroke-miterlimit="10" fill="none"/><text fill="#595959" font-family="Times New Roman,Times New Roman_MSFontService,sans-serif" font-weight="400" font-size="14" transform="translate(43.48 349)">0</text><text fill="#595959" font-family="Times New Roman,Times New Roman_MSFontService,sans-serif" font-weight="400" font-size="14" transform="translate(50.48 349)">.</text><text fill="#595959" font-family="Times New Roman,Times New Roman_MSFontService,sans-serif" font-weight="400" font-size="14" transform="translate(53.98 349)">00</text><text fill="#595959" font-family="Times New Roman,Times New Roman_MSFontService,sans-serif" font-weight="400" font-size="14" transform="translate(43.48 312)">2</text><text fill="#595959" font-family="Times New Roman,Times New Roman_MSFontService,sans-serif" font-weight="400" font-size="14" transform="translate(50.48 312)">.</text><text fill="#595959" font-family="Times New Roman,Times New Roman_MSFontService,sans-serif" font-weight="400" font-size="14" transform="translate(53.98 312)">00</text><text fill="#595959" font-family="Times New Roman,Times New Roman_MSFontService,sans-serif" font-weight="400" font-size="14" transform="translate(43.48 276)">4</text><text fill="#595959" font-family="Times New Roman,Times New Roman_MSFontService,sans-serif" font-weight="400" font-size="14" transform="translate(50.48 276)">.</text><text fill="#595959" font-family="Times New Roman,Times New Roman_MSFontService,sans-serif" font-weight="400" font-size="14" transform="translate(53.98 276)">00</text><text fill="#595959" font-family="Times New Roman,Times New Roman_MSFontService,sans-serif" font-weight="400" font-size="14" transform="translate(43.48 239)">6</text><text fill="#595959" font-family="Times New Roman,Times New Roman_MSFontService,sans-serif" font-weight="400" font-size="14" transform="translate(50.48 239)">.</text><text fill="#595959" font-family="Times New Roman,Times New Roman_MSFontService,sans-serif" font-weight="400" font-size="14" transform="translate(53.98 239)">00</text><text fill="#595959" font-family="Times New Roman,Times New Roman_MSFontService,sans-serif" font-weight="400" font-size="14" transform="translate(43.48 202)">8</text><text fill="#595959" font-family="Times New Roman,Times New Roman_MSFontService,sans-serif" font-weight="400" font-size="14" transform="translate(50.48 202)">.</text><text fill="#595959" font-family="Times New Roman,Times New Roman_MSFontService,sans-serif" font-weight="400" font-size="14" transform="translate(53.98 202)">00</text><text fill="#595959" font-family="Times New Roman,Times New Roman_MSFontService,sans-serif" font-weight="400" font-size="14" transform="translate(36.48 166)">10</text><text fill="#595959" font-family="Times New Roman,Times New Roman_MSFontService,sans-serif" font-weight="400" font-size="14" transform="translate(50.48 166)">.</text><text fill="#595959" font-family="Times New Roman,Times New Roman_MSFontService,sans-serif" font-weight="400" font-size="14" transform="translate(53.98 166)">00</text><text fill="#595959" font-family="Times New Roman,Times New Roman_MSFontService,sans-serif" font-weight="400" font-size="14" transform="translate(36.48 129)">12</text><text fill="#595959" font-family="Times New Roman,Times New Roman_MSFontService,sans-serif" font-weight="400" font-size="14" transform="translate(50.48 129)">.</text><text fill="#595959" font-family="Times New Roman,Times New Roman_MSFontService,sans-serif" font-weight="400" font-size="14" transform="translate(53.98 129)">00</text><text fill="#595959" font-family="Times New Roman,Times New Roman_MSFontService,sans-serif" font-weight="400" font-size="14" transform="translate(36.48 92)">14</text><text fill="#595959" font-family="Times New Roman,Times New Roman_MSFontService,sans-serif" font-weight="400" font-size="14" transform="translate(50.48 92)">.</text><text fill="#595959" font-family="Times New Roman,Times New Roman_MSFontService,sans-serif" font-weight="400" font-size="14" transform="translate(53.98 92)">00</text><text fill="#595959" font-family="Times New Roman,Times New Roman_MSFontService,sans-serif" font-weight="400" font-size="14" transform="translate(36.48 56)">16</text><text fill="#595959" font-family="Times New Roman,Times New Roman_MSFontService,sans-serif" font-weight="400" font-size="14" transform="translate(50.48 56)">.</text><text fill="#595959" font-family="Times New Roman,Times New Roman_MSFontService,sans-serif" font-weight="400" font-size="14" transform="translate(53.98 56)">00</text><text fill="#595959" font-family="Times New Roman,Times New Roman_MSFontService,sans-serif" font-weight="400" font-size="14" transform="translate(36.48 19)">18</text><text fill="#595959" font-family="Times New Roman,Times New Roman_MSFontService,sans-serif" font-weight="400" font-size="14" transform="translate(50.48 19)">.</text><text fill="#595959" font-family="Times New Roman,Times New Roman_MSFontService,sans-serif" font-weight="400" font-size="14" transform="translate(53.98 19)">00</text><text fill="#595959" font-family="Times New Roman,Times New Roman_MSFontService,sans-serif" font-weight="400" font-size="14" transform="translate(88.901 365)">2013</text><text fill="#595959" font-family="Times New Roman,Times New Roman_MSFontService,sans-serif" font-weight="400" font-size="14" transform="translate(134.925 365)">2014</text><text fill="#595959" font-family="Times New Roman,Times New Roman_MSFontService,sans-serif" font-weight="400" font-size="14" transform="translate(180.95 365)">2015</text><text fill="#595959" font-family="Times New Roman,Times New Roman_MSFontService,sans-serif" font-weight="400" font-size="14" transform="translate(226.974 365)">2016</text><text fill="#595959" font-family="Times New Roman,Times New Roman_MSFontService,sans-serif" font-weight="400" font-size="14" transform="translate(272.999 365)">2017</text><text fill="#595959" font-family="Times New Roman,Times New Roman_MSFontService,sans-serif" font-weight="400" font-size="14" transform="translate(319.023 365)">2018</text><text fill="#595959" font-family="Times New Roman,Times New Roman_MSFontService,sans-serif" font-weight="400" font-size="14" transform="translate(365.05 365)">2019</text><text fill="#595959" font-family="Times New Roman,Times New Roman_MSFontService,sans-serif" font-weight="400" font-size="14" transform="translate(411.07 365)">2020</text><text fill="#595959" font-family="Times New Roman,Times New Roman_MSFontService,sans-serif" font-weight="400" font-size="14" transform="translate(457.1 365)">2021</text><text fill="#595959" font-family="Times New Roman,Times New Roman_MSFontService,sans-serif" font-weight="400" font-size="14" transform="translate(503.12 365)">2022</text><text fill="#595959" font-family="Times New Roman,Times New Roman_MSFontService,sans-serif" font-weight="400" font-size="14" transform="matrix(6.12323e-17 -1 1 6.12323e-17 25.599 260)">Mean Concentration </text><text fill="#595959" font-family="Times New Roman,Times New Roman_MSFontService,sans-serif" font-weight="400" font-size="14" transform="matrix(6.12323e-17 -1 1 6.12323e-17 25.599 142)">(</text><text fill="#595959" font-family="Times New Roman,Times New Roman_MSFontService,sans-serif" font-weight="400" font-size="14" transform="matrix(6.12323e-17 -1 1 6.12323e-17 25.599 138)">μ</text><text fill="#595959" font-family="Times New Roman,Times New Roman_MSFontService,sans-serif" font-weight="400" font-size="14" transform="matrix(6.12323e-17 -1 1 6.12323e-17 25.599 130)">gm</text><text fill="#595959" font-family="Times New Roman,Times New Roman_MSFontService,sans-serif" font-weight="400" font-size="9" transform="matrix(6.12323e-17 -1 1 6.12323e-17 21.599 112)">-</text><text fill="#595959" font-family="Times New Roman,Times New Roman_MSFontService,sans-serif" font-weight="400" font-size="9" transform="matrix(6.12323e-17 -1 1 6.12323e-17 21.599 109)">3</text><text fill="#595959" font-family="Times New Roman,Times New Roman_MSFontService,sans-serif" font-weight="400" font-size="14" transform="matrix(6.12323e-17 -1 1 6.12323e-17 25.599 104)">)</text><text fill="#595959" font-family="Times New Roman,Times New Roman_MSFontService,sans-serif" font-weight="400" font-size="14" transform="translate(305.974 385)">Year</text><path d="M473 19 537 19 537 89 473 89Z" fill="#FFFFFF"/><path d="M480 27 487 27 487 34 480 34Z" fill="#FD9800"/><text fill="#595959" font-family="Times New Roman,Times New Roman_MSFontService,sans-serif" font-weight="400" font-size="14" transform="translate(489.76 35)">NO</text><text fill="#595959" font-family="Times New Roman,Times New Roman_MSFontService,sans-serif" font-weight="400" font-size="14" transform="translate(509.981 35)">2</text><path d="M480 51 487 51 487 58 480 58Z" fill="#013565"/><text fill="#595959" font-family="Times New Roman,Times New Roman_MSFontService,sans-serif" font-weight="400" font-size="14" transform="translate(489.76 58)">PM</text><text fill="#595959" font-family="Times New Roman,Times New Roman_MSFontService,sans-serif" font-weight="400" font-size="14" transform="translate(509.994 58)">2</text><text fill="#595959" font-family="Times New Roman,Times New Roman_MSFontService,sans-serif" font-weight="400" font-size="14" transform="translate(516.994 58)">P</text><text fill="#595959" font-family="Times New Roman,Times New Roman_MSFontService,sans-serif" font-weight="400" font-size="14" transform="translate(524.781 58)">5</text><path d="M480 74 487 74 487 81 480 81Z" fill="#FF0000"/><text fill="#595959" font-family="Times New Roman,Times New Roman_MSFontService,sans-serif" font-weight="400" font-size="14" transform="translate(489.76 81)">PM</text><text fill="#595959" font-family="Times New Roman,Times New Roman_MSFontService,sans-serif" font-weight="400" font-size="14" transform="translate(509.994 81)">10</text></g></svg>