<svg width="565" height="397" xmlns="http://www.w3.org/2000/svg" xmlns:xlink="http://www.w3.org/1999/xlink" xml:space="preserve" overflow="hidden"><g><path d="M0 0 565 0 565 397 0 397Z" fill="#FFFFFF"/><path d="M79.5 338.5 538.5 338.5M79.5 332.5 538.5 332.5M79.5 327.5 538.5 327.5M79.5 321.5 538.5 321.5M79.5 310.5 538.5 310.5M79.5 305.5 538.5 305.5M79.5 299.5 538.5 299.5M79.5 294.5 538.5 294.5M79.5 283.5 538.5 283.5M79.5 277.5 538.5 277.5M79.5 272.5 538.5 272.5M79.5 266.5 538.5 266.5M79.5 255.5 538.5 255.5M79.5 250.5 538.5 250.5M79.5 245.5 538.5 245.5M79.5 239.5 538.5 239.5M79.5 228.5 538.5 228.5M79.5 223.5 538.5 223.5M79.5 217.5 538.5 217.5M79.5 212.5 538.5 212.5M79.5 201.5 538.5 201.5M79.5 195.5 538.5 195.5M79.5 190.5 538.5 190.5M79.5 184.5 538.5 184.5M79.5 173.5 538.5 173.5M79.5 168.5 538.5 168.5M79.5 162.5 538.5 162.5M79.5 157.5 538.5 157.5M79.5 146.5 538.5 146.5M79.5 141.5 538.5 141.5M79.5 135.5 538.5 135.5M79.5 130.5 538.5 130.5M79.5 119.5 538.5 119.5M79.5 113.5 538.5 113.5M79.5 108.5 538.5 108.5M79.5 102.5 538.5 102.5M79.5 91.5 538.5 91.5M79.5 86.5 538.5 86.5M79.5 80.5 538.5 80.5M79.5 75.5 538.5 75.5M79.5 64.5 538.5 64.5M79.5 58.5 538.5 58.5M79.5 53.5 538.5 53.5M79.5 47.5 538.5 47.5M79.5 37.5 538.5 37.5M79.5 31.5 538.5 31.5M79.5 26.5 538.5 26.5M79.5 20.5 538.5 20.5" stroke="#F2F2F2" stroke-linejoin="round" stroke-miterlimit="10" fill="none"/><path d="M79.5 316.5 538.5 316.5M79.5 288.5 538.5 288.5M79.5 261.5 538.5 261.5M79.5 234.5 538.5 234.5M79.5 206.5 538.5 206.5M79.5 179.5 538.5 179.5M79.5 151.5 538.5 151.5M79.5 124.5 538.5 124.5M79.5 97.5 538.5 97.5M79.5 69.5 538.5 69.5M79.5 42.5 538.5 42.5M79.5 15.5 538.5 15.5" stroke="#D9D9D9" stroke-linejoin="round" stroke-miterlimit="10" fill="none"/><path d="M102.5 15.5 102.5 343.5M148.5 15.5 148.5 343.5M194.5 15.5 194.5 343.5M240.5 15.5 240.5 343.5M286.5 15.5 286.5 343.5M332.5 15.5 332.5 343.5M378.5 15.5 378.5 343.5M423.5 15.5 423.5 343.5M469.5 15.5 469.5 343.5M515.5 15.5 515.5 343.5" stroke="#F2F2F2" stroke-linejoin="round" stroke-miterlimit="10" fill="none"/><path d="M79.5 15.5 79.5 343.5M125.5 15.5 125.5 343.5M171.5 15.5 171.5 343.5M217.5 15.5 217.5 343.5M263.5 15.5 263.5 343.5M309.5 15.5 309.5 343.5M355.5 15.5 355.5 343.5M401.5 15.5 401.5 343.5M446.5 15.5 446.5 343.5M492.5 15.5 492.5 343.5M538.5 15.5 538.5 343.5" stroke="#D9D9D9" stroke-linejoin="round" stroke-miterlimit="10" fill="none"/><path d="M87 114 97 114 97 344 87 344ZM133 107 143 107 143 344 133 344ZM179 33 189 33 189 344 179 344ZM225 59 235 59 235 344 225 344ZM271 66 281 66 281 344 271 344ZM317 129 327 129 327 344 317 344ZM363 100 373 100 373 344 363 344ZM409 127 419 127 419 344 409 344ZM455 145 465 145 465 344 455 344ZM501 110 511 110 511 344 501 344Z" fill="#FD9800"/><path d="M97 144 107 144 107 344 97 344ZM143 195 153 195 153 344 143 344ZM189 139 199 139 199 344 189 344ZM235 144 245 144 245 344 235 344ZM281 177 291 177 291 344 281 344ZM327 188 337 188 337 344 327 344ZM373 178 383 178 383 344 373 344ZM419 190 429 190 429 344 419 344ZM465 194 475 194 475 344 465 344ZM511 192 521 192 521 344 511 344Z" fill="#013565"/><path d="M107 77 117 77 117 344 107 344ZM153 132 163 132 163 344 153 344ZM199 82 209 82 209 344 199 344ZM245 99 255 99 255 344 245 344ZM291 127 301 127 301 344 291 344ZM337 135 347 135 347 344 337 344ZM383 137 393 137 393 344 383 344ZM429 152 439 152 439 344 429 344ZM475 132 485 132 485 344 475 344ZM521 123 531 123 531 344 521 344Z" fill="#FF0000"/><path d="M0 0 0.000104987 328" stroke="#BFBFBF" stroke-linejoin="round" stroke-miterlimit="10" fill="none" fill-rule="evenodd" transform="matrix(1 0 0 -1 79.5 343.5)"/><path d="M75.5 343.5 79.5 343.5M75.5 316.5 79.5 316.5M75.5 288.5 79.5 288.5M75.5 261.5 79.5 261.5M75.5 234.5 79.5 234.5M75.5 206.5 79.5 206.5M75.5 179.5 79.5 179.5M75.5 151.5 79.5 151.5M75.5 124.5 79.5 124.5M75.5 97.5 79.5 97.5M75.5 69.5 79.5 69.5M75.5 42.5 79.5 42.5M75.5 15.5 79.5 15.5" stroke="#BFBFBF" stroke-linejoin="round" stroke-miterlimit="10" fill="none"/><path d="M79.5 343.5 538.5 343.5" stroke="#BFBFBF" stroke-linejoin="round" stroke-miterlimit="10" fill="none" fill-rule="evenodd"/><path d="M79.5 343.5 79.5 347.5M125.5 343.5 125.5 347.5M171.5 343.5 171.5 347.5M217.5 343.5 217.5 347.5M263.5 343.5 263.5 347.5M309.5 343.5 309.5 347.5M355.5 343.5 355.5 347.5M401.5 343.5 401.5 347.5M446.5 343.5 446.5 347.5M492.5 343.5 492.5 347.5M538.5 343.5 538.5 347.5" stroke="#BFBFBF" stroke-linejoin="round" stroke-miterlimit="10" fill="none"/><text fill="#595959" font-family="Times New Roman,Times New Roman_MSFontService,sans-serif" font-weight="400" font-size="14" transform="translate(42.777 347)">0</text><text fill="#595959" font-family="Times New Roman,Times New Roman_MSFontService,sans-serif" font-weight="400" font-size="14" transform="translate(49.777 347)">.</text><text fill="#595959" font-family="Times New Roman,Times New Roman_MSFontService,sans-serif" font-weight="400" font-size="14" transform="translate(53.277 347)">00</text><text fill="#595959" font-family="Times New Roman,Times New Roman_MSFontService,sans-serif" font-weight="400" font-size="14" transform="translate(42.777 320)">2</text><text fill="#595959" font-family="Times New Roman,Times New Roman_MSFontService,sans-serif" font-weight="400" font-size="14" transform="translate(49.777 320)">.</text><text fill="#595959" font-family="Times New Roman,Times New Roman_MSFontService,sans-serif" font-weight="400" font-size="14" transform="translate(53.277 320)">00</text><text fill="#595959" font-family="Times New Roman,Times New Roman_MSFontService,sans-serif" font-weight="400" font-size="14" transform="translate(42.777 293)">4</text><text fill="#595959" font-family="Times New Roman,Times New Roman_MSFontService,sans-serif" font-weight="400" font-size="14" transform="translate(49.777 293)">.</text><text fill="#595959" font-family="Times New Roman,Times New Roman_MSFontService,sans-serif" font-weight="400" font-size="14" transform="translate(53.277 293)">00</text><text fill="#595959" font-family="Times New Roman,Times New Roman_MSFontService,sans-serif" font-weight="400" font-size="14" transform="translate(42.777 265)">6</text><text fill="#595959" font-family="Times New Roman,Times New Roman_MSFontService,sans-serif" font-weight="400" font-size="14" transform="translate(49.777 265)">.</text><text fill="#595959" font-family="Times New Roman,Times New Roman_MSFontService,sans-serif" font-weight="400" font-size="14" transform="translate(53.277 265)">00</text><text fill="#595959" font-family="Times New Roman,Times New Roman_MSFontService,sans-serif" font-weight="400" font-size="14" transform="translate(42.777 238)">8</text><text fill="#595959" font-family="Times New Roman,Times New Roman_MSFontService,sans-serif" font-weight="400" font-size="14" transform="translate(49.777 238)">.</text><text fill="#595959" font-family="Times New Roman,Times New Roman_MSFontService,sans-serif" font-weight="400" font-size="14" transform="translate(53.277 238)">00</text><text fill="#595959" font-family="Times New Roman,Times New Roman_MSFontService,sans-serif" font-weight="400" font-size="14" transform="translate(35.777 211)">10</text><text fill="#595959" font-family="Times New Roman,Times New Roman_MSFontService,sans-serif" font-weight="400" font-size="14" transform="translate(49.777 211)">.</text><text fill="#595959" font-family="Times New Roman,Times New Roman_MSFontService,sans-serif" font-weight="400" font-size="14" transform="translate(53.277 211)">00</text><text fill="#595959" font-family="Times New Roman,Times New Roman_MSFontService,sans-serif" font-weight="400" font-size="14" transform="translate(35.777 183)">12</text><text fill="#595959" font-family="Times New Roman,Times New Roman_MSFontService,sans-serif" font-weight="400" font-size="14" transform="translate(49.777 183)">.</text><text fill="#595959" font-family="Times New Roman,Times New Roman_MSFontService,sans-serif" font-weight="400" font-size="14" transform="translate(53.277 183)">00</text><text fill="#595959" font-family="Times New Roman,Times New Roman_MSFontService,sans-serif" font-weight="400" font-size="14" transform="translate(35.777 156)">14</text><text fill="#595959" font-family="Times New Roman,Times New Roman_MSFontService,sans-serif" font-weight="400" font-size="14" transform="translate(49.777 156)">.</text><text fill="#595959" font-family="Times New Roman,Times New Roman_MSFontService,sans-serif" font-weight="400" font-size="14" transform="translate(53.277 156)">00</text><text fill="#595959" font-family="Times New Roman,Times New Roman_MSFontService,sans-serif" font-weight="400" font-size="14" transform="translate(35.777 128)">16</text><text fill="#595959" font-family="Times New Roman,Times New Roman_MSFontService,sans-serif" font-weight="400" font-size="14" transform="translate(49.777 128)">.</text><text fill="#595959" font-family="Times New Roman,Times New Roman_MSFontService,sans-serif" font-weight="400" font-size="14" transform="translate(53.277 128)">00</text><text fill="#595959" font-family="Times New Roman,Times New Roman_MSFontService,sans-serif" font-weight="400" font-size="14" transform="translate(35.777 101)">18</text><text fill="#595959" font-family="Times New Roman,Times New Roman_MSFontService,sans-serif" font-weight="400" font-size="14" transform="translate(49.777 101)">.</text><text fill="#595959" font-family="Times New Roman,Times New Roman_MSFontService,sans-serif" font-weight="400" font-size="14" transform="translate(53.277 101)">00</text><text fill="#595959" font-family="Times New Roman,Times New Roman_MSFontService,sans-serif" font-weight="400" font-size="14" transform="translate(35.777 74)">20</text><text fill="#595959" font-family="Times New Roman,Times New Roman_MSFontService,sans-serif" font-weight="400" font-size="14" transform="translate(49.777 74)">.</text><text fill="#595959" font-family="Times New Roman,Times New Roman_MSFontService,sans-serif" font-weight="400" font-size="14" transform="translate(53.277 74)">00</text><text fill="#595959" font-family="Times New Roman,Times New Roman_MSFontService,sans-serif" font-weight="400" font-size="14" transform="translate(35.777 46)">22</text><text fill="#595959" font-family="Times New Roman,Times New Roman_MSFontService,sans-serif" font-weight="400" font-size="14" transform="translate(49.777 46)">.</text><text fill="#595959" font-family="Times New Roman,Times New Roman_MSFontService,sans-serif" font-weight="400" font-size="14" transform="translate(53.277 46)">00</text><text fill="#595959" font-family="Times New Roman,Times New Roman_MSFontService,sans-serif" font-weight="400" font-size="14" transform="translate(35.777 19)">24</text><text fill="#595959" font-family="Times New Roman,Times New Roman_MSFontService,sans-serif" font-weight="400" font-size="14" transform="translate(49.777 19)">.</text><text fill="#595959" font-family="Times New Roman,Times New Roman_MSFontService,sans-serif" font-weight="400" font-size="14" transform="translate(53.277 19)">00</text><text fill="#595959" font-family="Times New Roman,Times New Roman_MSFontService,sans-serif" font-weight="400" font-size="14" transform="translate(88.172 364)">2013</text><text fill="#595959" font-family="Times New Roman,Times New Roman_MSFontService,sans-serif" font-weight="400" font-size="14" transform="translate(134.148 364)">2014</text><text fill="#595959" font-family="Times New Roman,Times New Roman_MSFontService,sans-serif" font-weight="400" font-size="14" transform="translate(180.123 364)">2015</text><text fill="#595959" font-family="Times New Roman,Times New Roman_MSFontService,sans-serif" font-weight="400" font-size="14" transform="translate(226.098 364)">2016</text><text fill="#595959" font-family="Times New Roman,Times New Roman_MSFontService,sans-serif" font-weight="400" font-size="14" transform="translate(272.073 364)">2017</text><text fill="#595959" font-family="Times New Roman,Times New Roman_MSFontService,sans-serif" font-weight="400" font-size="14" transform="translate(318.049 364)">2018</text><text fill="#595959" font-family="Times New Roman,Times New Roman_MSFontService,sans-serif" font-weight="400" font-size="14" transform="translate(364.02 364)">2019</text><text fill="#595959" font-family="Times New Roman,Times New Roman_MSFontService,sans-serif" font-weight="400" font-size="14" transform="translate(410 364)">2020</text><text fill="#595959" font-family="Times New Roman,Times New Roman_MSFontService,sans-serif" font-weight="400" font-size="14" transform="translate(455.97 364)">2021</text><text fill="#595959" font-family="Times New Roman,Times New Roman_MSFontService,sans-serif" font-weight="400" font-size="14" transform="translate(501.95 364)">2022</text><text fill="#595959" font-family="Times New Roman,Times New Roman_MSFontService,sans-serif" font-weight="400" font-size="14" transform="matrix(6.12323e-17 -1 1 6.12323e-17 24.969 256)">Max Concentration </text><text fill="#595959" font-family="Times New Roman,Times New Roman_MSFontService,sans-serif" font-weight="400" font-size="14" transform="matrix(6.12323e-17 -1 1 6.12323e-17 24.969 144)">(</text><text fill="#595959" font-family="Times New Roman,Times New Roman_MSFontService,sans-serif" font-weight="400" font-size="14" transform="matrix(6.12323e-17 -1 1 6.12323e-17 24.969 140)">μ</text><text fill="#595959" font-family="Times New Roman,Times New Roman_MSFontService,sans-serif" font-weight="400" font-size="14" transform="matrix(6.12323e-17 -1 1 6.12323e-17 24.969 132)">gm</text><text fill="#595959" font-family="Times New Roman,Times New Roman_MSFontService,sans-serif" font-weight="400" font-size="9" transform="matrix(6.12323e-17 -1 1 6.12323e-17 20.969 114)">-</text><text fill="#595959" font-family="Times New Roman,Times New Roman_MSFontService,sans-serif" font-weight="400" font-size="9" transform="matrix(6.12323e-17 -1 1 6.12323e-17 20.969 111)">3</text><text fill="#595959" font-family="Times New Roman,Times New Roman_MSFontService,sans-serif" font-weight="400" font-size="14" transform="matrix(6.12323e-17 -1 1 6.12323e-17 24.969 107)">)</text><text fill="#595959" font-family="Times New Roman,Times New Roman_MSFontService,sans-serif" font-weight="400" font-size="14" transform="translate(305.033 383)">Year</text><path d="M472 19 536 19 536 89 472 89Z" fill="#FFFFFF"/><path d="M479 27 486 27 486 34 479 34Z" fill="#FD9800"/><text fill="#595959" font-family="Times New Roman,Times New Roman_MSFontService,sans-serif" font-weight="400" font-size="14" transform="translate(488.6 35)">NO</text><text fill="#595959" font-family="Times New Roman,Times New Roman_MSFontService,sans-serif" font-weight="400" font-size="14" transform="translate(508.821 35)">2</text><path d="M479 51 486 51 486 58 479 58Z" fill="#013565"/><text fill="#595959" font-family="Times New Roman,Times New Roman_MSFontService,sans-serif" font-weight="400" font-size="14" transform="translate(488.6 58)">PM</text><text fill="#595959" font-family="Times New Roman,Times New Roman_MSFontService,sans-serif" font-weight="400" font-size="14" transform="translate(508.834 58)">2</text><text fill="#595959" font-family="Times New Roman,Times New Roman_MSFontService,sans-serif" font-weight="400" font-size="14" transform="translate(515.834 58)">P</text><text fill="#595959" font-family="Times New Roman,Times New Roman_MSFontService,sans-serif" font-weight="400" font-size="14" transform="translate(523.62 58)">5</text><path d="M479 74 486 74 486 81 479 81Z" fill="#FF0000"/><text fill="#595959" font-family="Times New Roman,Times New Roman_MSFontService,sans-serif" font-weight="400" font-size="14" transform="translate(488.6 81)">PM</text><text fill="#595959" font-family="Times New Roman,Times New Roman_MSFontService,sans-serif" font-weight="400" font-size="14" transform="translate(508.834 81)">10</text></g></svg>